# xmcd
#
# Track frame offsets: 
#        150
#        18321
#        38842
#        53021
#        68026
#        84690
#        102738
#        113918
#        134588
#        148893
#        165285
#        187455
#        204505
#        219871
#        232462
#        243192
#        258147
#        271776
#        283395
#        297713
#        320831
#
# Disc length: 4795 seconds
#
# Revision: 0
# Processed by: cddbd v1.5.1PL0 Copyright (c) Steve Scherf et al.
# Submitted via: ExactAudioCopy v0.95b3
#
DISCID=5312b915
DTITLE=Charles Aznavour - Lo mejor de...
DYEAR=1996
DGENRE=Blues
TTITLE0=La bohemia
TTITLE1=Nuestra juventud
TTITLE2=Debes saber
TTITLE3=Nunca mas
TTITLE4=Inolvidable
TTITLE5=Morir de amor
TTITLE6=El barco ya se fue
TTITLE7=Que solo estoy
TTITLE8=Isabel
TTITLE9=La juventud divino tesoro
TTITLE10=Como dicen
TTITLE11=Adios a la Mama
TTITLE12=Agosto en Paris
TTITLE13=C'est Fini
TTITLE14=Dios
TTITLE15=Camarada
TTITLE16=Muy poco antes de la guerra
TTITLE17=Vivi
TTITLE18=Maria cuando te vas
TTITLE19=Dormir con usted
TTITLE20=Data
EXTD=
EXTT0=
EXTT1=
EXTT2=
EXTT3=
EXTT4=
EXTT5=
EXTT6=
EXTT7=
EXTT8=
EXTT9=
EXTT10=
EXTT11=
EXTT12=
EXTT13=
EXTT14=
EXTT15=
EXTT16=
EXTT17=
EXTT18=
EXTT19=
EXTT20=
PLAYORDER=
